<svg width="295" height="302" viewBox="0 0 295 302" fill="none" xmlns="http://www.w3.org/2000/svg">
<path d="M246.731 7.86186C231.421 10.5957 151.501 69.1458 113.455 98.0791C87.4834 98.9904 34.1732 100.95 28.7055 101.496C21.8709 102.18 0 122 0 124.051C0 126.101 50.5764 171.21 52.6268 171.21C54.6771 171.21 60.1449 164.375 62.1953 163.008C64.2456 161.641 101.836 151.389 104.57 151.389C107.304 151.389 108.671 156.174 107.304 158.907C106.21 161.095 78.5984 168.02 64.9291 171.21C57.6388 178.5 43.3316 193.491 44.4252 195.131C45.5187 196.771 62.1953 197.181 70.3968 197.181C76.0924 202.421 88.0302 213.038 90.2173 213.585C92.9511 214.268 129.175 170.526 131.225 169.843C133.276 169.159 137.376 172.577 137.376 175.311C137.376 178.044 96.3685 216.318 96.3685 219.052C96.3685 221.239 108.671 231.81 114.822 236.822C114.594 238.189 114.275 241.743 114.822 245.024C115.505 249.125 118.239 262.794 120.973 263.477C123.707 264.161 140.11 242.29 142.161 238.873C144.211 235.455 146.945 199.232 148.995 197.181C151.046 195.131 153.096 196.498 155.146 198.548C157.197 200.599 151.729 232.038 149.679 239.556C147.628 247.074 140.794 252.542 142.844 255.276C144.484 257.463 177.701 287.171 194.104 301.751C197.749 298.106 206.27 289.176 211.19 282.614C217.342 274.413 212.557 219.736 211.19 188.296C226.91 169.159 283.638 71.424 290.472 48.8697C297.307 26.3154 294.573 7.86186 287.738 2.39415C280.904 -3.07357 264.501 1.71068 246.731 7.86186Z" fill="#FF3640"/>
<path d="M104.57 238.873L69.7133 206.75C67.4351 207.889 63.0154 211.398 63.5622 216.318C64.2456 222.47 88.8503 243.657 95.0015 244.341C99.9225 244.887 103.431 240.923 104.57 238.873Z" fill="#FF3640"/>
</svg>
